PathFileType	4	(X/Y/Z)	 s04c0102.trc
DataRate	CameraRate	NumFrames	NumMarkers	Units	OrigDataRate	OrigDataStartFrame	OrigNumFrames
200	200	4	50	mm	200	501	2000
Frame#	Time	racr			lacr			c7			jug			rlel			rdr			llel			ldr			s2			lic			ric			lasi			rasi			rpsi			lpsi			rgt			lgt			rth1			rth2			rth3			rth4			rlfc			rmfc			rsh1			rsh2			rsh3			rsh4			rlmal			rmmal			rcal			rtoe			rmt5			lth1			lth2			lth4			lth3			llfc			lmfc			lsh1			lsh2			lsh3			lsh4			llmal			lmmal			lcal			ltoe			lmt5			SBIKE			LBIKE			RBIKE			
		X1	Y1	Z1	X2	Y2	Z2	X3	Y3	Z3	X4	Y4	Z4	X5	Y5	Z5	X6	Y6	Z6	X7	Y7	Z7	X8	Y8	Z8	X9	Y9	Z9	X10	Y10	Z10	X11	Y11	Z11	X12	Y12	Z12	X13	Y13	Z13	X14	Y14	Z14	X15	Y15	Z15	X16	Y16	Z16	X17	Y17	Z17	X18	Y18	Z18	X19	Y19	Z19	X20	Y20	Z20	X21	Y21	Z21	X22	Y22	Z22	X23	Y23	Z23	X24	Y24	Z24	X25	Y25	Z25	X26	Y26	Z26	X27	Y27	Z27	X28	Y28	Z28	X29	Y29	Z29	X30	Y30	Z30	X31	Y31	Z31	X32	Y32	Z32	X33	Y33	Z33	X34	Y34	Z34	X35	Y35	Z35	X36	Y36	Z36	X37	Y37	Z37	X38	Y38	Z38	X39	Y39	Z39	X40	Y40	Z40	X41	Y41	Z41	X42	Y42	Z42	X43	Y43	Z43	X44	Y44	Z44	X45	Y45	Z45	X46	Y46	Z46	X47	Y47	Z47	X48	Y48	Z48	X49	Y49	Z49	X50	Y50	Z50	
501	2.5050	486.933374	1396.078547	-124.426270	490.152545	1392.317865	-380.867169	465.126431	1449.424060	-254.121717	439.045178	1296.648633	-261.879427	492.037695	1106.776891	20.571717	697.871599	913.691200	-78.852554	503.154913	1135.985412	-531.309392	700.954740	924.783246	-451.905018	-76.261155	1190.637787	-265.565199	70.620842	1225.809476	-423.782470	77.554190	1201.244708	-104.553115	117.800727	1186.587854	-382.055833	124.747902	1151.718211	-149.449536	-51.721801	1234.390881	-218.592867	-53.277844	1244.402261	-294.460123	33.539383	1133.756022	-95.751363	48.263984	1151.574691	-460.134841	117.908201	993.991909	-72.370595	177.334532	928.282854	-78.237030	197.743068	845.559333	-84.302247	207.439731	946.215697	-91.475987	256.883586	711.212814	-107.098605	237.145196	689.420158	-219.011360	222.793347	588.036059	-81.135760	228.096494	498.604104	-97.525167	186.720185	423.165142	-105.689777	260.291769	496.390940	-120.182123	168.319993	272.422486	-114.402705	190.369739	279.061942	-197.332082	101.376727	267.549969	-149.339584	377.304279	141.355420	-154.422744	308.180038	143.032277	-96.838551	118.961062	1105.023741	-473.622842	204.994031	1099.345468	-482.045594	217.841658	1130.620487	-467.467390	278.281158	1050.662136	-496.493492	415.097144	968.929276	-481.453681	453.625983	948.646010	-371.607424	364.569183	869.547630	-493.356308	332.350792	793.527757	-464.904514	262.582151	739.194687	-454.285424	357.455861	781.449574	-437.172222	171.744587	625.749801	-432.942018	174.001218	631.403368	-344.373596	92.093166	641.129842	-386.016962	352.525298	483.140029	-402.041863	271.362214	490.024151	-461.286167	-177.385014	937.936382	-278.645446	-3.125090	86.131928	-484.442918	-14.903596	80.508708	-84.146558	
502	2.5100	486.380397	1396.648926	-124.966110	489.851769	1392.105510	-380.959754	464.342226	1449.630935	-254.401912	438.555510	1296.732373	-261.900688	492.882724	1107.569121	20.092336	697.947133	913.512432	-79.283364	500.978319	1135.445604	-531.266875	700.261716	925.713784	-452.409975	-76.911145	1190.283515	-265.540317	69.869420	1225.704774	-423.654360	77.216541	1200.989700	-104.457432	116.822417	1186.871827	-381.516591	124.343407	1151.314185	-149.366096	-52.262980	1234.146452	-218.565351	-54.070951	1244.154554	-294.107175	33.144543	1133.308212	-95.574897	47.346817	1152.365770	-459.870044	118.060980	993.611645	-72.264964	177.753484	928.221265	-78.246979	198.560761	845.571189	-84.263702	207.660986	946.187515	-91.737851	257.194415	711.120533	-106.629517	237.825862	689.497839	-218.662584	221.356466	588.323375	-80.878202	225.366715	498.747179	-97.908513	183.090876	423.967082	-105.798636	257.637607	496.321575	-120.008523	162.684593	273.617157	-114.761526	185.148111	279.910801	-197.702119	95.825794	269.537219	-150.058939	369.945242	139.817018	-154.323388	300.780238	142.287665	-96.957844	118.491005	1105.961085	-472.811940	204.586221	1100.534683	-481.276733	217.328860	1131.936055	-466.721310	278.047141	1051.749432	-494.744864	415.855632	971.183874	-479.246488	454.177291	951.469302	-368.958074	366.134835	871.812815	-491.263030	335.147504	795.016367	-463.752079	266.169692	739.583846	-453.345566	360.608866	782.801389	-436.229798	176.952366	624.339997	-432.560817	179.152540	630.446098	-344.097911	97.119435	638.995221	-385.817485	359.757483	485.597811	-402.176464	278.515145	490.917302	-461.300451	-177.420953	937.958641	-278.678240	-3.140051	86.122642	-484.458940	-14.908405	80.525173	-84.138148	
503	2.5150	485.720822	1397.171091	-125.574068	489.581728	1391.815151	-381.183423	463.642148	1449.740524	-254.749430	438.000039	1296.692058	-261.970711	493.466132	1108.297573	19.521158	697.978409	913.236838	-79.726355	498.651920	1134.750471	-531.374416	699.615336	926.449732	-452.951366	-77.720202	1189.909369	-265.441151	68.988046	1225.501034	-423.519220	76.765368	1200.688946	-104.404415	115.873756	1187.014710	-381.093772	123.875021	1150.879003	-149.308034	-52.484947	1234.051903	-218.966159	-54.872003	1243.831852	-293.874953	32.696166	1132.851849	-95.470417	46.521709	1152.924887	-459.745420	118.354519	993.284819	-72.164883	178.379401	928.286834	-78.345177	199.575548	845.622961	-84.264409	208.083852	946.290355	-91.894883	257.843253	711.111865	-106.233980	238.701112	689.765889	-218.302951	220.178193	588.906577	-80.626427	222.866970	499.265858	-97.966851	179.543763	425.116572	-106.021600	255.150536	496.288091	-120.030205	156.858253	275.218248	-115.143506	179.794760	281.214993	-198.067593	90.021114	271.589383	-150.933767	362.597983	138.790956	-154.096060	293.193512	142.062048	-96.970869	118.081520	1106.502502	-472.219565	204.225433	1101.010849	-480.417735	216.882645	1132.585294	-466.019746	277.752804	1052.040194	-492.874830	416.452319	972.983065	-476.873398	454.431084	953.816428	-366.115614	367.654668	873.522426	-489.141728	337.770888	796.035506	-462.466607	269.867278	739.236011	-452.432473	363.653508	783.683986	-435.269374	181.947031	622.489319	-432.477204	184.277413	629.089413	-343.840983	101.493140	635.938912	-385.949949	366.922127	487.763267	-401.911198	285.782039	491.448416	-461.388118	-177.448780	937.949393	-278.734691	-3.139702	86.132070	-484.435075	-14.907199	80.517560	-84.125145	
504	2.5200	485.098881	1397.495993	-126.174819	489.336827	1391.363233	-381.518061	462.933736	1449.688298	-255.217311	437.518196	1296.589838	-262.149452	493.865693	1108.875325	18.859347	698.015953	912.939634	-79.936857	496.371611	1133.909287	-531.556013	698.989183	926.914051	-453.236490	-78.558517	1189.414917	-265.349151	68.081284	1225.208102	-423.385770	76.278818	1200.363468	-104.262502	114.956464	1187.012900	-380.774202	123.351823	1150.405186	-149.269734	-52.571855	1233.320813	-218.799570	-55.690738	1243.533344	-293.871656	32.222138	1132.287043	-95.346012	45.646747	1153.175497	-459.725648	118.710799	993.005849	-72.146728	179.026879	928.297458	-78.672729	200.880933	845.767840	-83.842594	208.659305	946.479877	-91.958277	258.938359	711.222954	-105.793601	239.926661	690.162204	-218.022694	219.256809	589.598431	-80.519922	220.478090	499.996376	-97.940683	175.998875	426.561139	-106.243978	252.795755	496.603503	-119.977177	150.733818	277.165451	-115.688961	174.612008	282.588395	-198.513385	84.018936	273.978803	-152.202200	355.064500	138.200845	-153.533897	285.354149	142.013062	-96.951272	117.752432	1106.430825	-471.842073	203.896184	1100.805413	-479.354844	216.466794	1132.542036	-465.257298	277.874495	1052.011376	-491.595782	416.846752	974.230897	-474.300133	454.300898	955.594819	-363.099507	369.152480	874.481797	-487.041493	340.519112	796.116590	-461.323457	273.380924	738.344218	-451.785930	366.533496	784.030930	-434.255981	186.812260	620.227602	-432.592648	189.900883	627.232454	-343.007575	105.458635	632.089480	-386.559718	374.078521	490.097783	-401.722574	293.053808	491.653431	-461.505970	-177.464794	937.949921	-278.842463	-3.145551	86.084037	-484.462440	-14.907369	80.534791	-84.119378	
